<?xml version="1.0" encoding="utf-8"?>
<!-- Generator: Adobe Illustrator 23.0.5, SVG Export Plug-In . SVG Version: 6.00 Build 0)  -->
<svg version="1.1" xmlns="http://www.w3.org/2000/svg" xmlns:xlink="http://www.w3.org/1999/xlink" x="0px" y="0px"
	 viewBox="0 0 1920 1080" style="enable-background:new 0 0 1920 1080;" xml:space="preserve">
<style type="text/css">
	.st0{display:none;}
	.st1{display:inline;fill:#F8F9F0;}
	.st2{fill:#00141D;}
	.st3{fill:none;stroke:#00141D;stroke-miterlimit:10;}
	.st4{fill:#C4DD36;}
	.st5{fill:none;stroke:#C4DD36;stroke-width:2;stroke-miterlimit:10;}
</style>
<g id="Capa_3" class="st0">
	<rect class="st1" width="1920" height="1080"/>
</g>
<g id="Capa_1">
	<g>
		<path class="st2" d="M504.43-83.44L292.44,30.49c-3.99,2.15-5.49,7.12-3.34,11.11l0,0c2.15,3.99,7.12,5.49,11.11,3.34L512.2-68.99
			c3.99-2.15,5.49-7.12,3.34-11.11v0C513.4-84.09,508.42-85.59,504.43-83.44z"/>
	</g>
	<g>
		<path class="st2" d="M173.83,134.12L-38.16,248.05c-3.99,2.15-5.49,7.12-3.34,11.11h0c2.15,3.99,7.12,5.49,11.11,3.34
			l211.98-113.93c3.99-2.15,5.49-7.12,3.34-11.11l0,0C182.79,133.48,177.82,131.98,173.83,134.12z"/>
	</g>
	<g>
		<path class="st2" d="M372.55,284.84L160.57,398.77c-3.99,2.15-5.49,7.12-3.34,11.11v0c2.15,3.99,7.12,5.49,11.11,3.34
			l211.98-113.93c3.99-2.15,5.49-7.12,3.34-11.11l0,0C381.52,284.19,376.54,282.7,372.55,284.84z"/>
	</g>
	<g>
		<path class="st2" d="M759.07,67.27L547.08,181.2c-3.99,2.15-5.49,7.12-3.34,11.11v0c2.15,3.99,7.12,5.49,11.11,3.34L766.84,81.73
			c3.99-2.15,5.49-7.12,3.34-11.11v0C768.03,66.63,763.06,65.13,759.07,67.27z"/>
	</g>
	<g>
		<path class="st2" d="M111.84,522.46l-211.98,113.93c-3.99,2.15-5.49,7.12-3.34,11.11h0c2.15,3.99,7.12,5.49,11.11,3.34
			l211.98-113.93c3.99-2.15,5.49-7.12,3.34-11.11l0,0C120.8,521.81,115.83,520.32,111.84,522.46z"/>
	</g>
	<g>
		<path class="st2" d="M350.67,485.39L138.69,599.32c-3.99,2.15-5.49,7.12-3.34,11.11l0,0c2.15,3.99,7.12,5.49,11.11,3.34
			l211.98-113.93c3.99-2.15,5.49-7.12,3.34-11.11h0C359.64,484.74,354.67,483.25,350.67,485.39z"/>
	</g>
	<g>
		<path class="st2" d="M652.26-69.48l-413.3,222.12c-3.99,2.15-5.49,7.12-3.34,11.11v0c2.15,3.99,7.12,5.49,11.11,3.34L660.03-55.03
			c3.99-2.15,5.49-7.12,3.34-11.11v0C661.23-70.13,656.25-71.63,652.26-69.48z"/>
	</g>
	<g>
		<path class="st2" d="M876.51-69.48l-413.3,222.12c-3.99,2.15-5.49,7.12-3.34,11.11v0c2.15,3.99,7.12,5.49,11.11,3.34l413.3-222.12
			c3.99-2.15,5.49-7.12,3.34-11.11v0C885.48-70.13,880.5-71.63,876.51-69.48z"/>
	</g>
	<g>
		<path class="st2" d="M194.03,307.92l-413.3,222.12c-3.99,2.15-5.49,7.12-3.34,11.11v0c2.15,3.99,7.12,5.49,11.11,3.34
			l413.3-222.12c3.99-2.15,5.49-7.12,3.34-11.11l0,0C203,307.27,198.02,305.77,194.03,307.92z"/>
	</g>
	<g>
		<path class="st2" d="M1139.43-5.48l-573.5,308.23c-3.99,2.15-5.49,7.12-3.34,11.11v0c2.15,3.99,7.12,5.49,11.11,3.34L1147.2,8.98
			c3.99-2.15,5.49-7.12,3.34-11.11v0C1148.39-6.13,1143.42-7.62,1139.43-5.48z"/>
	</g>
	<g>
		<path class="st2" d="M989.48-6.02L306.42,361.09c-3.99,2.15-5.49,7.12-3.34,11.11v0c2.15,3.99,7.12,5.49,11.11,3.34L997.25,8.44
			c3.99-2.15,5.49-7.12,3.34-11.11v0C998.45-6.66,993.48-8.16,989.48-6.02z"/>
	</g>
	<line class="st3" x1="-117.21" y1="386.9" x2="239.46" y2="194.15"/>
	<line class="st3" x1="76.78" y1="344.55" x2="334.98" y2="205.15"/>
	<line class="st3" x1="249.89" y1="471.01" x2="508.09" y2="331.61"/>
	<line class="st3" x1="492.99" y1="400.41" x2="751.18" y2="261.01"/>
	<line class="st3" x1="321.72" y1="282.54" x2="557.2" y2="155.43"/>
	<line class="st3" x1="-117.21" y1="602.37" x2="239.46" y2="409.62"/>
	<line class="st3" x1="378.81" y1="153.63" x2="735.47" y2="-39.13"/>
	<line class="st3" x1="777.21" y1="70.76" x2="1133.88" y2="-122"/>
	<line class="st3" x1="735.47" y1="167.14" x2="1092.13" y2="-25.62"/>
	<line class="st3" x1="907.35" y1="180.64" x2="1264.02" y2="-12.12"/>
	<line class="st3" x1="92.13" y1="108.2" x2="448.79" y2="-84.55"/>
	<g>
		<path class="st2" d="M1546.88,370.96L1334.9,484.89c-3.99,2.15-5.49,7.12-3.34,11.11l0,0c2.15,3.99,7.12,5.49,11.11,3.34
			l211.98-113.93c3.99-2.15,5.49-7.12,3.34-11.11v0C1555.85,370.31,1550.87,368.81,1546.88,370.96z"/>
	</g>
	<g>
		<path class="st2" d="M1216.28,588.53l-211.98,113.93c-3.99,2.15-5.49,7.12-3.34,11.11l0,0c2.15,3.99,7.12,5.49,11.11,3.34
			l211.98-113.93c3.99-2.15,5.49-7.12,3.34-11.11l0,0C1225.24,587.88,1220.27,586.38,1216.28,588.53z"/>
	</g>
	<g>
		<path class="st2" d="M1415,739.24l-211.98,113.93c-3.99,2.15-5.49,7.12-3.34,11.11l0,0c2.15,3.99,7.12,5.49,11.11,3.34
			l211.98-113.93c3.99-2.15,5.49-7.12,3.34-11.11v0C1423.97,738.59,1419,737.1,1415,739.24z"/>
	</g>
	<g>
		<path class="st2" d="M1801.52,521.68l-211.98,113.93c-3.99,2.15-5.49,7.12-3.34,11.11l0,0c2.15,3.99,7.12,5.49,11.11,3.34
			l211.98-113.93c3.99-2.15,5.49-7.12,3.34-11.11l0,0C1810.49,521.03,1805.51,519.53,1801.52,521.68z"/>
	</g>
	<g>
		<path class="st2" d="M1154.29,976.86L942.3,1090.79c-3.99,2.15-5.49,7.12-3.34,11.11l0,0c2.15,3.99,7.12,5.49,11.11,3.34
			l211.98-113.93c3.99-2.15,5.49-7.12,3.34-11.11h0C1163.26,976.22,1158.28,974.72,1154.29,976.86z"/>
	</g>
	<g>
		<path class="st2" d="M1393.13,939.79l-211.98,113.93c-3.99,2.15-5.49,7.12-3.34,11.11l0,0c2.15,3.99,7.12,5.49,11.11,3.34
			l211.98-113.93c3.99-2.15,5.49-7.12,3.34-11.11v0C1402.09,939.14,1397.12,937.65,1393.13,939.79z"/>
	</g>
	<g>
		<path class="st2" d="M1694.71,384.92l-413.29,222.12c-3.99,2.15-5.49,7.12-3.34,11.11h0c2.15,3.99,7.12,5.49,11.11,3.34
			l413.3-222.12c3.99-2.15,5.49-7.12,3.34-11.11l0,0C1703.68,384.27,1698.7,382.77,1694.71,384.92z"/>
	</g>
	<g>
		<path class="st2" d="M1918.96,384.92l-413.3,222.12c-3.99,2.15-5.49,7.12-3.34,11.11l0,0c2.15,3.99,7.12,5.49,11.11,3.34
			l413.3-222.12c3.99-2.15,5.49-7.12,3.34-11.11h0C1927.93,384.27,1922.95,382.77,1918.96,384.92z"/>
	</g>
	<g>
		<path class="st2" d="M1236.49,762.32l-413.3,222.12c-3.99,2.15-5.49,7.12-3.34,11.11l0,0c2.15,3.99,7.12,5.49,11.11,3.34
			l413.3-222.12c3.99-2.15,5.49-7.12,3.34-11.11v0C1245.45,761.67,1240.48,760.17,1236.49,762.32z"/>
	</g>
	<g>
		<path class="st2" d="M2181.88,448.93l-573.5,308.23c-3.99,2.15-5.49,7.12-3.34,11.11l0,0c2.15,3.99,7.12,5.49,11.11,3.34
			l573.5-308.23c3.99-2.15,5.49-7.12,3.34-11.11v0C2190.84,448.28,2185.87,446.78,2181.88,448.93z"/>
	</g>
	<g>
		<path class="st2" d="M2031.94,448.39l-683.06,367.11c-3.99,2.15-5.49,7.12-3.34,11.11l0,0c2.15,3.99,7.12,5.49,11.11,3.34
			l683.06-367.11c3.99-2.15,5.49-7.12,3.34-11.11v0C2040.9,447.74,2035.93,446.24,2031.94,448.39z"/>
	</g>
	<line class="st3" x1="935.79" y1="845.9" x2="1292.46" y2="653.15"/>
	<g>
		<path class="st2" d="M814.75,904.88L401.46,1127c-3.99,2.15-5.49,7.12-3.34,11.11l0,0c2.15,3.99,7.12,5.49,11.11,3.34
			l413.3-222.12c3.99-2.15,5.49-7.12,3.34-11.11l0,0C823.72,904.23,818.74,902.73,814.75,904.88z"/>
	</g>
	<line class="st3" x1="509.79" y1="989.9" x2="866.46" y2="797.15"/>
	<g>
		<path class="st2" d="M795.94,1137.52l-413.3,222.12c-3.99,2.15-5.49,7.12-3.34,11.11l0,0c2.15,3.99,7.12,5.49,11.11,3.34
			l413.3-222.12c3.99-2.15,5.49-7.12,3.34-11.11l0,0C804.91,1136.87,799.93,1135.38,795.94,1137.52z"/>
	</g>
	<line class="st3" x1="490.79" y1="1224.9" x2="847.46" y2="1032.15"/>
	<g>
		<path class="st2" d="M377.18,952.4l-413.3,222.12c-3.99,2.15-5.49,7.12-3.34,11.11h0c2.15,3.99,7.12,5.49,11.11,3.34l413.3-222.12
			c3.99-2.15,5.49-7.12,3.34-11.11l0,0C386.15,951.75,381.17,950.25,377.18,952.4z"/>
	</g>
	<line class="st3" x1="67.79" y1="1037.9" x2="424.46" y2="845.15"/>
	<line class="st3" x1="1129.78" y1="803.55" x2="1387.98" y2="664.15"/>
	<line class="st3" x1="1302.89" y1="930.01" x2="1561.09" y2="790.61"/>
	<line class="st3" x1="1545.99" y1="859.41" x2="1804.18" y2="720.01"/>
	<line class="st3" x1="1374.72" y1="741.54" x2="1610.2" y2="614.43"/>
	<line class="st3" x1="935.79" y1="1061.38" x2="1292.46" y2="868.62"/>
	<line class="st3" x1="1431.81" y1="612.63" x2="1788.47" y2="419.87"/>
	<line class="st3" x1="1830.21" y1="529.76" x2="2186.88" y2="337"/>
	<line class="st3" x1="1788.47" y1="626.14" x2="2145.13" y2="433.38"/>
	<line class="st3" x1="1960.35" y1="639.64" x2="2317.02" y2="446.88"/>
	<line class="st3" x1="1145.13" y1="567.2" x2="1501.79" y2="374.45"/>
</g>
<g id="Capa_2">
	<g>
		<path class="st4" d="M457.53,467.04l-573.5,308.23c-3.99,2.15-5.49,7.12-3.34,11.11l0,0c2.15,3.99,7.12,5.49,11.11,3.34
			L465.3,481.5c3.99-2.15,5.49-7.12,3.34-11.11l0,0C466.49,466.39,461.52,464.9,457.53,467.04z"/>
	</g>
	<g>
		<path class="st4" d="M418.03,590.41l-573.5,308.23c-3.99,2.15-5.49,7.12-3.34,11.11v0c2.15,3.99,7.12,5.49,11.11,3.34
			l573.5-308.23c3.99-2.15,5.49-7.12,3.34-11.11v0C426.99,589.76,422.02,588.27,418.03,590.41z"/>
	</g>
	<g>
		<path class="st4" d="M771.12,560.63l-573.5,308.23c-3.99,2.15-5.49,7.12-3.34,11.11l0,0c2.15,3.99,7.12,5.49,11.11,3.34
			l573.5-308.23c3.99-2.15,5.49-7.12,3.34-11.11h0C780.08,559.99,775.11,558.49,771.12,560.63z"/>
	</g>
	<g>
		<path class="st4" d="M1037.91,618.98L464.4,927.2c-3.99,2.15-5.49,7.12-3.34,11.11l0,0c2.15,3.99,7.12,5.49,11.11,3.34
			l573.5-308.23c3.99-2.15,5.49-7.12,3.34-11.11l0,0C1046.87,618.33,1041.9,616.83,1037.91,618.98z"/>
	</g>
	<g>
		<path class="st4" d="M1099.9,453.67L526.39,761.9c-3.99,2.15-5.49,7.12-3.34,11.11l0,0c2.15,3.99,7.12,5.49,11.11,3.34
			l573.5-308.23c3.99-2.15,5.49-7.12,3.34-11.11v0C1108.86,453.02,1103.89,451.53,1099.9,453.67z"/>
	</g>
	<g>
		<path class="st4" d="M806.36,467.04l-573.5,308.23c-3.99,2.15-5.49,7.12-3.34,11.11l0,0c2.15,3.99,7.12,5.49,11.11,3.34
			l573.5-308.23c3.99-2.15,5.49-7.12,3.34-11.11l0,0C815.33,466.39,810.36,464.9,806.36,467.04z"/>
	</g>
	<g>
		<path class="st4" d="M1009.14,293.64L597.7,514.76c-3.99,2.15-5.49,7.12-3.34,11.11v0c2.15,3.99,7.12,5.49,11.11,3.34
			l411.43-221.12c3.99-2.15,5.49-7.12,3.34-11.11v0C1018.1,292.99,1013.13,291.49,1009.14,293.64z"/>
	</g>
	<g>
		<path class="st4" d="M865.95,302.3l-234.45,126c-3.99,2.15-5.49,7.12-3.34,11.11h0c2.15,3.99,7.12,5.49,11.11,3.34l234.45-126
			c3.99-2.15,5.49-7.12,3.34-11.11l0,0C874.91,301.65,869.94,300.16,865.95,302.3z"/>
	</g>
	<g>
		<path class="st4" d="M1341.8,87.77l-234.45,126c-3.99,2.15-5.49,7.12-3.34,11.11v0c2.15,3.99,7.12,5.49,11.11,3.34l234.45-126
			c3.99-2.15,5.49-7.12,3.34-11.11v0C1350.77,87.13,1345.79,85.63,1341.8,87.77z"/>
	</g>
	<g>
		<path class="st4" d="M1422.39,146.57l-411.43,221.12c-3.99,2.15-5.49,7.12-3.34,11.11l0,0c2.15,3.99,7.12,5.49,11.11,3.34
			l411.43-221.12c3.99-2.15,5.49-7.12,3.34-11.11l0,0C1431.36,145.92,1426.38,144.42,1422.39,146.57z"/>
	</g>
	<g>
		<path class="st4" d="M1583.44,146.57l-411.43,221.12c-3.99,2.15-5.49,7.12-3.34,11.11l0,0c2.15,3.99,7.12,5.49,11.11,3.34
			l411.43-221.12c3.99-2.15,5.49-7.12,3.34-11.11v0C1592.41,145.92,1587.43,144.42,1583.44,146.57z"/>
	</g>
	<g>
		<path class="st4" d="M1484.99-77.08l-411.43,221.12c-3.99,2.15-5.49,7.12-3.34,11.11v0c2.15,3.99,7.12,5.49,11.11,3.34
			l411.43-221.12c3.99-2.15,5.49-7.12,3.34-11.11v0C1493.95-77.73,1488.98-79.22,1484.99-77.08z"/>
	</g>
	<line class="st5" x1="223.86" y1="652.67" x2="580.53" y2="459.91"/>
	<line class="st5" x1="852.47" y1="275.75" x2="1058.12" y2="164.02"/>
	<line class="st5" x1="442.4" y1="442.72" x2="648.05" y2="330.99"/>
	<line class="st5" x1="609.38" y1="377.65" x2="815.03" y2="265.92"/>
	<line class="st5" x1="954.99" y1="259.78" x2="1160.64" y2="148.06"/>
	<line class="st5" x1="711.9" y1="563.04" x2="1068.56" y2="370.28"/>
	<line class="st5" x1="999.19" y1="344.5" x2="1355.85" y2="151.74"/>
	<line class="st5" x1="735.22" y1="749.04" x2="1091.89" y2="556.29"/>
	<line class="st5" x1="999.19" y1="563.04" x2="1355.85" y2="370.28"/>
	<g>
		<path class="st4" d="M2018.04-293.98L1606.61-72.85c-3.99,2.15-5.49,7.12-3.34,11.11v0c2.15,3.99,7.12,5.49,11.11,3.34
			l411.43-221.12c3.99-2.15,5.49-7.12,3.34-11.11l0,0C2027.01-294.62,2022.04-296.12,2018.04-293.98z"/>
	</g>
	<line class="st5" x1="1438.19" y1="118.04" x2="1794.85" y2="-74.72"/>
	<line class="st5" x1="249.03" y1="819.64" x2="605.69" y2="626.88"/>
	<g>
		<path class="st4" d="M1499.98,921.45l-573.5,308.23c-3.99,2.15-5.49,7.12-3.34,11.11h0c2.15,3.99,7.12,5.49,11.11,3.34
			l573.5-308.23c3.99-2.15,5.49-7.12,3.34-11.11v0C1508.95,920.8,1503.97,919.3,1499.98,921.45z"/>
	</g>
	<g>
		<path class="st4" d="M1463.69,1049.47l-579.31,311.34c-4.03,2.17-5.54,7.19-3.38,11.22l0,0c2.17,4.03,7.19,5.54,11.22,3.38
			l579.31-311.34c4.03-2.17,5.54-7.19,3.38-11.22l0,0C1472.75,1048.82,1467.72,1047.3,1463.69,1049.47z"/>
	</g>
	<g>
		<path class="st4" d="M1813.57,1015.04l-573.5,308.23c-3.99,2.15-5.49,7.12-3.34,11.11l0,0c2.15,3.99,7.12,5.49,11.11,3.34
			l573.5-308.23c3.99-2.15,5.49-7.12,3.34-11.11l0,0C1822.53,1014.39,1817.56,1012.89,1813.57,1015.04z"/>
	</g>
	<g>
		<path class="st4" d="M2080.36,1073.38l-573.5,308.23c-3.99,2.15-5.49,7.12-3.34,11.11l0,0c2.15,3.99,7.12,5.49,11.11,3.34
			l573.5-308.23c3.99-2.15,5.49-7.12,3.34-11.11l0,0C2089.33,1072.73,2084.35,1071.23,2080.36,1073.38z"/>
	</g>
	<g>
		<path class="st4" d="M2142.35,908.08l-573.5,308.23c-3.99,2.15-5.49,7.12-3.34,11.11l0,0c2.15,3.99,7.12,5.49,11.11,3.34
			l573.5-308.23c3.99-2.15,5.49-7.12,3.34-11.11l0,0C2151.31,907.43,2146.34,905.93,2142.35,908.08z"/>
	</g>
	<g>
		<path class="st4" d="M1848.82,921.45l-573.5,308.23c-3.99,2.15-5.49,7.12-3.34,11.11l0,0c2.15,3.99,7.12,5.49,11.11,3.34
			l573.5-308.23c3.99-2.15,5.49-7.12,3.34-11.11v0C1857.78,920.8,1852.81,919.3,1848.82,921.45z"/>
	</g>
	<g>
		<path class="st4" d="M2051.59,748.04l-411.43,221.12c-3.99,2.15-5.49,7.12-3.34,11.11v0c2.15,3.99,7.12,5.49,11.11,3.34
			l411.43-221.12c3.99-2.15,5.49-7.12,3.34-11.11v0C2060.56,747.39,2055.58,745.89,2051.59,748.04z"/>
	</g>
	<g>
		<path class="st4" d="M1908.4,756.7l-234.45,126c-3.99,2.15-5.49,7.12-3.34,11.11l0,0c2.15,3.99,7.12,5.49,11.11,3.34l234.45-126
			c3.99-2.15,5.49-7.12,3.34-11.11l0,0C1917.37,756.06,1912.39,754.56,1908.4,756.7z"/>
	</g>
	<g>
		<path class="st4" d="M2384.25,542.18l-234.45,126c-3.99,2.15-5.49,7.12-3.34,11.11v0c2.15,3.99,7.12,5.49,11.11,3.34l234.45-126
			c3.99-2.15,5.49-7.12,3.34-11.11l0,0C2393.22,541.53,2388.24,540.03,2384.25,542.18z"/>
	</g>
	<g>
		<path class="st4" d="M2464.85,600.97l-411.43,221.12c-3.99,2.15-5.49,7.12-3.34,11.11l0,0c2.15,3.99,7.12,5.49,11.11,3.34
			l411.43-221.12c3.99-2.15,5.49-7.12,3.34-11.11l0,0C2473.81,600.32,2468.84,598.82,2464.85,600.97z"/>
	</g>
	<g>
		<path class="st4" d="M2625.89,600.97l-411.43,221.12c-3.99,2.15-5.49,7.12-3.34,11.11l0,0c2.15,3.99,7.12,5.49,11.11,3.34
			l411.43-221.12c3.99-2.15,5.49-7.12,3.34-11.11l0,0C2634.86,600.32,2629.88,598.82,2625.89,600.97z"/>
	</g>
	<g>
		<path class="st4" d="M2527.44,377.32l-411.43,221.12c-3.99,2.15-5.49,7.12-3.34,11.11l0,0c2.15,3.99,7.12,5.49,11.11,3.34
			l411.43-221.12c3.99-2.15,5.49-7.12,3.34-11.11v0C2536.41,376.68,2531.43,375.18,2527.44,377.32z"/>
	</g>
	<line class="st5" x1="1276.86" y1="1111.67" x2="1633.53" y2="918.91"/>
	<line class="st5" x1="1905.47" y1="734.75" x2="2111.12" y2="623.02"/>
	<line class="st5" x1="1532.4" y1="888.72" x2="1738.05" y2="776.99"/>
	<line class="st5" x1="1662.38" y1="836.65" x2="1868.03" y2="724.92"/>
	<line class="st4" x1="2007.99" y1="718.78" x2="2213.64" y2="607.06"/>
	<line class="st4" x1="1764.9" y1="1022.04" x2="2121.56" y2="829.28"/>
	<line class="st4" x1="2052.19" y1="803.5" x2="2408.85" y2="610.74"/>
	<line class="st4" x1="1788.22" y1="1208.04" x2="2144.89" y2="1015.29"/>
	<line class="st4" x1="2052.19" y1="1022.04" x2="2408.85" y2="829.28"/>
	<g>
		<path class="st4" d="M1979.35-2.31l-234.45,126c-3.99,2.15-5.49,7.12-3.34,11.11v0c2.15,3.99,7.12,5.49,11.11,3.34l234.45-126
			c3.99-2.15,5.49-7.12,3.34-11.11v0C1988.32-2.96,1983.34-4.46,1979.35-2.31z"/>
	</g>
	<g>
		<path class="st4" d="M2059.94,56.48L1648.51,277.6c-3.99,2.15-5.49,7.12-3.34,11.11l0,0c2.15,3.99,7.12,5.49,11.11,3.34
			l411.43-221.12c3.99-2.15,5.49-7.12,3.34-11.11v0C2068.91,55.83,2063.93,54.33,2059.94,56.48z"/>
	</g>
	<g>
		<path class="st4" d="M2220.99,56.48L1809.56,277.6c-3.99,2.15-5.49,7.12-3.34,11.11l0,0c2.15,3.99,7.12,5.49,11.11,3.34
			l411.43-221.12c3.99-2.15,5.49-7.12,3.34-11.11v0C2229.96,55.83,2224.98,54.33,2220.99,56.48z"/>
	</g>
	<g>
		<path class="st4" d="M2122.54-167.17L1711.1,53.96c-3.99,2.15-5.49,7.12-3.34,11.11v0c2.15,3.99,7.12,5.49,11.11,3.34
			l411.43-221.12c3.99-2.15,5.49-7.12,3.34-11.11v0C2131.5-167.81,2126.53-169.31,2122.54-167.17z"/>
	</g>
	<line class="st5" x1="1643.19" y1="253.5" x2="1999.85" y2="60.74"/>
	<line class="st5" x1="1643.19" y1="472.04" x2="1999.85" y2="279.28"/>
	<line class="st4" x1="1302.03" y1="1278.64" x2="1658.69" y2="1085.88"/>
</g>
</svg>
